<svg xmlns="http://www.w3.org/2000/svg" version="1.1" xmlns:xlink="http://www.w3.org/1999/xlink" width="1000" height="1000"><style>
    #light-icon {
      display: inline;
    }
    #dark-icon {
      display: none;
    }

    @media (prefers-color-scheme: dark) {
      #light-icon {
        display: none;
      }
      #dark-icon {
        display: inline;
      }
    }
  </style><g id="light-icon"><svg xmlns="http://www.w3.org/2000/svg" version="1.1" xmlns:xlink="http://www.w3.org/1999/xlink" width="1000" height="1000"><g clip-path="url(#SvgjsClipPath1141)"><rect width="1000" height="1000" fill="#c2c2c2"></rect><g transform="matrix(2.6666666666666665,0,0,2.6666666666666665,100,100)"><svg xmlns="http://www.w3.org/2000/svg" version="1.1" xmlns:xlink="http://www.w3.org/1999/xlink" width="300" height="300"><svg width="300" height="300" viewBox="0 0 300 300" fill="none" xmlns="http://www.w3.org/2000/svg">
<rect width="300" height="300" rx="5" fill="#C2C2C2"></rect>
<rect width="80" height="80" rx="5" transform="matrix(-1 0 0 1 94 13)" fill="#697282"></rect>
<path d="M40.642 70V35.0909H55.0625C57.6761 35.0909 59.9318 35.6023 61.8295 36.625C63.7386 37.6364 65.2102 39.0511 66.2443 40.8693C67.2784 42.6761 67.7955 44.7784 67.7955 47.1761C67.7955 49.5852 67.267 51.6932 66.2102 53.5C65.1648 55.2955 63.6705 56.6875 61.7273 57.6761C59.7841 58.6648 57.4773 59.1591 54.8068 59.1591H45.9091V52.5114H53.2386C54.5114 52.5114 55.5739 52.2898 56.4261 51.8466C57.2898 51.4034 57.9432 50.7841 58.3864 49.9886C58.8295 49.1818 59.0511 48.2443 59.0511 47.1761C59.0511 46.0966 58.8295 45.1648 58.3864 44.3807C57.9432 43.5852 57.2898 42.9716 56.4261 42.5398C55.5625 42.108 54.5 41.892 53.2386 41.892H49.0795V70H40.642Z" fill="white"></path>
<rect width="80" height="80" rx="5" transform="matrix(-1 0 0 1 284 13)" fill="#00C950"></rect>
<path d="M229.5 41.9432V35.0909H259.006V41.9432H248.42V70H240.102V41.9432H229.5Z" fill="white"></path>
<rect width="80" height="80" rx="5" transform="matrix(-1 0 0 1 189 13)" fill="#00C950"></rect>
<path d="M165.591 52.5455C165.591 56.3864 164.852 59.642 163.375 62.3125C161.898 64.983 159.898 67.0114 157.375 68.3977C154.864 69.7841 152.045 70.4773 148.92 70.4773C145.784 70.4773 142.96 69.7784 140.449 68.3807C137.938 66.983 135.943 64.9545 134.466 62.2955C133 59.625 132.267 56.375 132.267 52.5455C132.267 48.7045 133 45.4489 134.466 42.7784C135.943 40.108 137.938 38.0795 140.449 36.6932C142.96 35.3068 145.784 34.6136 148.92 34.6136C152.045 34.6136 154.864 35.3068 157.375 36.6932C159.898 38.0795 161.898 40.108 163.375 42.7784C164.852 45.4489 165.591 48.7045 165.591 52.5455ZM156.966 52.5455C156.966 50.2727 156.642 48.3523 155.994 46.7841C155.358 45.2159 154.438 44.0284 153.233 43.2216C152.04 42.4148 150.602 42.0114 148.92 42.0114C147.25 42.0114 145.813 42.4148 144.608 43.2216C143.403 44.0284 142.477 45.2159 141.83 46.7841C141.193 48.3523 140.875 50.2727 140.875 52.5455C140.875 54.8182 141.193 56.7386 141.83 58.3068C142.477 59.875 143.403 61.0625 144.608 61.8693C145.813 62.6761 147.25 63.0795 148.92 63.0795C150.602 63.0795 152.04 62.6761 153.233 61.8693C154.438 61.0625 155.358 59.875 155.994 58.3068C156.642 56.7386 156.966 54.8182 156.966 52.5455Z" fill="white"></path>
<rect width="80" height="80" rx="5" transform="matrix(-1 0 0 1 189 110)" fill="#00C950"></rect>
<path d="M165.591 149.545C165.591 153.386 164.852 156.642 163.375 159.312C161.898 161.983 159.898 164.011 157.375 165.398C154.864 166.784 152.045 167.477 148.92 167.477C145.784 167.477 142.96 166.778 140.449 165.381C137.938 163.983 135.943 161.955 134.466 159.295C133 156.625 132.267 153.375 132.267 149.545C132.267 145.705 133 142.449 134.466 139.778C135.943 137.108 137.938 135.08 140.449 133.693C142.96 132.307 145.784 131.614 148.92 131.614C152.045 131.614 154.864 132.307 157.375 133.693C159.898 135.08 161.898 137.108 163.375 139.778C164.852 142.449 165.591 145.705 165.591 149.545ZM156.966 149.545C156.966 147.273 156.642 145.352 155.994 143.784C155.358 142.216 154.438 141.028 153.233 140.222C152.04 139.415 150.602 139.011 148.92 139.011C147.25 139.011 145.813 139.415 144.608 140.222C143.403 141.028 142.477 142.216 141.83 143.784C141.193 145.352 140.875 147.273 140.875 149.545C140.875 151.818 141.193 153.739 141.83 155.307C142.477 156.875 143.403 158.062 144.608 158.869C145.813 159.676 147.25 160.08 148.92 160.08C150.602 160.08 152.04 159.676 153.233 158.869C154.438 158.062 155.358 156.875 155.994 155.307C156.642 153.739 156.966 151.818 156.966 149.545Z" fill="white"></path>
<rect width="80" height="80" rx="5" transform="matrix(-1 0 0 1 94 110)" fill="#FDC800"></rect>
<path d="M40.5 138.943V132.091H70.0057V138.943H59.4205V167H51.1023V138.943H40.5Z" fill="white"></path>
<rect width="80" height="80" rx="5" transform="matrix(-1 0 0 1 284 110)" fill="#FDC800"></rect>
<path d="M251.966 167L240.989 152.511H239.08V167H230.642V132.091H239.08V145.642H240.426L251.233 132.091H261.784L248.335 148.574L262.483 167H251.966Z" fill="white"></path>
<rect width="80" height="80" rx="5" transform="matrix(-1 0 0 1 94 207)" fill="#00C950"></rect>
<path d="M50.2045 253.312V252.614C50.2045 250.682 50.3636 249.142 50.6818 247.994C51.0114 246.847 51.4886 245.926 52.1136 245.233C52.7386 244.528 53.5 243.886 54.3977 243.307C55.1136 242.852 55.75 242.392 56.3068 241.926C56.875 241.449 57.3239 240.937 57.6534 240.392C57.983 239.847 58.1477 239.227 58.1477 238.534C58.1477 237.864 57.9886 237.273 57.6705 236.761C57.3523 236.25 56.9148 235.858 56.358 235.585C55.8125 235.301 55.2045 235.159 54.5341 235.159C53.8636 235.159 53.233 235.312 52.642 235.619C52.0625 235.926 51.5852 236.364 51.2102 236.932C50.8466 237.489 50.6591 238.165 50.6477 238.96H42.8068C42.8409 236.574 43.392 234.619 44.4602 233.097C45.5398 231.574 46.9659 230.449 48.7386 229.722C50.5114 228.983 52.4659 228.614 54.6023 228.614C56.9432 228.614 59.0227 228.977 60.8409 229.705C62.6705 230.432 64.108 231.506 65.1534 232.926C66.1989 234.347 66.7216 236.085 66.7216 238.142C66.7216 239.494 66.4943 240.687 66.0398 241.722C65.5852 242.756 64.9489 243.67 64.1307 244.466C63.3239 245.25 62.375 245.966 61.2841 246.614C60.4318 247.114 59.7216 247.636 59.1534 248.182C58.5966 248.727 58.1761 249.352 57.892 250.057C57.608 250.75 57.4659 251.602 57.4659 252.614V253.312H50.2045ZM53.9716 264.494C52.7443 264.494 51.6932 264.062 50.8182 263.199C49.9545 262.335 49.5284 261.29 49.5398 260.062C49.5284 258.858 49.9545 257.83 50.8182 256.977C51.6932 256.114 52.7443 255.682 53.9716 255.682C55.142 255.682 56.1705 256.114 57.0568 256.977C57.9432 257.83 58.392 258.858 58.4034 260.062C58.392 260.881 58.1761 261.625 57.7557 262.295C57.3466 262.966 56.8068 263.5 56.1364 263.898C55.4773 264.295 54.7557 264.494 53.9716 264.494Z" fill="white"></path>
<rect width="80" height="80" rx="5" transform="matrix(-1 0 0 1 284 207)" fill="#00C950"></rect>
<path d="M238.205 253.312V252.614C238.205 250.682 238.364 249.142 238.682 247.994C239.011 246.847 239.489 245.926 240.114 245.233C240.739 244.528 241.5 243.886 242.398 243.307C243.114 242.852 243.75 242.392 244.307 241.926C244.875 241.449 245.324 240.937 245.653 240.392C245.983 239.847 246.148 239.227 246.148 238.534C246.148 237.864 245.989 237.273 245.67 236.761C245.352 236.25 244.915 235.858 244.358 235.585C243.813 235.301 243.205 235.159 242.534 235.159C241.864 235.159 241.233 235.312 240.642 235.619C240.063 235.926 239.585 236.364 239.21 236.932C238.847 237.489 238.659 238.165 238.648 238.96H230.807C230.841 236.574 231.392 234.619 232.46 233.097C233.54 231.574 234.966 230.449 236.739 229.722C238.511 228.983 240.466 228.614 242.602 228.614C244.943 228.614 247.023 228.977 248.841 229.705C250.67 230.432 252.108 231.506 253.153 232.926C254.199 234.347 254.722 236.085 254.722 238.142C254.722 239.494 254.494 240.687 254.04 241.722C253.585 242.756 252.949 243.67 252.131 244.466C251.324 245.25 250.375 245.966 249.284 246.614C248.432 247.114 247.722 247.636 247.153 248.182C246.597 248.727 246.176 249.352 245.892 250.057C245.608 250.75 245.466 251.602 245.466 252.614V253.312H238.205ZM241.972 264.494C240.744 264.494 239.693 264.062 238.818 263.199C237.955 262.335 237.528 261.29 237.54 260.062C237.528 258.858 237.955 257.83 238.818 256.977C239.693 256.114 240.744 255.682 241.972 255.682C243.142 255.682 244.17 256.114 245.057 256.977C245.943 257.83 246.392 258.858 246.403 260.062C246.392 260.881 246.176 261.625 245.756 262.295C245.347 262.966 244.807 263.5 244.136 263.898C243.477 264.295 242.756 264.494 241.972 264.494Z" fill="white"></path>
<rect width="80" height="80" rx="5" transform="matrix(-1 0 0 1 189 207)" fill="#00C950"></rect>
<path d="M145.205 253.312V252.614C145.205 250.682 145.364 249.142 145.682 247.994C146.011 246.847 146.489 245.926 147.114 245.233C147.739 244.528 148.5 243.886 149.398 243.307C150.114 242.852 150.75 242.392 151.307 241.926C151.875 241.449 152.324 240.937 152.653 240.392C152.983 239.847 153.148 239.227 153.148 238.534C153.148 237.864 152.989 237.273 152.67 236.761C152.352 236.25 151.915 235.858 151.358 235.585C150.813 235.301 150.205 235.159 149.534 235.159C148.864 235.159 148.233 235.312 147.642 235.619C147.063 235.926 146.585 236.364 146.21 236.932C145.847 237.489 145.659 238.165 145.648 238.96H137.807C137.841 236.574 138.392 234.619 139.46 233.097C140.54 231.574 141.966 230.449 143.739 229.722C145.511 228.983 147.466 228.614 149.602 228.614C151.943 228.614 154.023 228.977 155.841 229.705C157.67 230.432 159.108 231.506 160.153 232.926C161.199 234.347 161.722 236.085 161.722 238.142C161.722 239.494 161.494 240.687 161.04 241.722C160.585 242.756 159.949 243.67 159.131 244.466C158.324 245.25 157.375 245.966 156.284 246.614C155.432 247.114 154.722 247.636 154.153 248.182C153.597 248.727 153.176 249.352 152.892 250.057C152.608 250.75 152.466 251.602 152.466 252.614V253.312H145.205ZM148.972 264.494C147.744 264.494 146.693 264.062 145.818 263.199C144.955 262.335 144.528 261.29 144.54 260.062C144.528 258.858 144.955 257.83 145.818 256.977C146.693 256.114 147.744 255.682 148.972 255.682C150.142 255.682 151.17 256.114 152.057 256.977C152.943 257.83 153.392 258.858 153.403 260.062C153.392 260.881 153.176 261.625 152.756 262.295C152.347 262.966 151.807 263.5 151.136 263.898C150.477 264.295 149.756 264.494 148.972 264.494Z" fill="white"></path>
</svg></svg></g></g><defs><clipPath id="SvgjsClipPath1141"><rect width="1000" height="1000" x="0" y="0" rx="150" ry="150"></rect></clipPath></defs></svg></g><g id="dark-icon"><svg xmlns="http://www.w3.org/2000/svg" version="1.1" xmlns:xlink="http://www.w3.org/1999/xlink" width="1000" height="1000"><g clip-path="url(#SvgjsClipPath1142)"><rect width="1000" height="1000" fill="#c2c2c2"></rect><g transform="matrix(2.6666666666666665,0,0,2.6666666666666665,100,100)"><svg xmlns="http://www.w3.org/2000/svg" version="1.1" xmlns:xlink="http://www.w3.org/1999/xlink" width="300" height="300"><svg width="300" height="300" viewBox="0 0 300 300" fill="none" xmlns="http://www.w3.org/2000/svg">
<rect width="300" height="300" rx="5" fill="#C2C2C2"></rect>
<rect width="80" height="80" rx="5" transform="matrix(-1 0 0 1 94 13)" fill="#697282"></rect>
<path d="M40.642 70V35.0909H55.0625C57.6761 35.0909 59.9318 35.6023 61.8295 36.625C63.7386 37.6364 65.2102 39.0511 66.2443 40.8693C67.2784 42.6761 67.7955 44.7784 67.7955 47.1761C67.7955 49.5852 67.267 51.6932 66.2102 53.5C65.1648 55.2955 63.6705 56.6875 61.7273 57.6761C59.7841 58.6648 57.4773 59.1591 54.8068 59.1591H45.9091V52.5114H53.2386C54.5114 52.5114 55.5739 52.2898 56.4261 51.8466C57.2898 51.4034 57.9432 50.7841 58.3864 49.9886C58.8295 49.1818 59.0511 48.2443 59.0511 47.1761C59.0511 46.0966 58.8295 45.1648 58.3864 44.3807C57.9432 43.5852 57.2898 42.9716 56.4261 42.5398C55.5625 42.108 54.5 41.892 53.2386 41.892H49.0795V70H40.642Z" fill="white"></path>
<rect width="80" height="80" rx="5" transform="matrix(-1 0 0 1 284 13)" fill="#00C950"></rect>
<path d="M229.5 41.9432V35.0909H259.006V41.9432H248.42V70H240.102V41.9432H229.5Z" fill="white"></path>
<rect width="80" height="80" rx="5" transform="matrix(-1 0 0 1 189 13)" fill="#00C950"></rect>
<path d="M165.591 52.5455C165.591 56.3864 164.852 59.642 163.375 62.3125C161.898 64.983 159.898 67.0114 157.375 68.3977C154.864 69.7841 152.045 70.4773 148.92 70.4773C145.784 70.4773 142.96 69.7784 140.449 68.3807C137.938 66.983 135.943 64.9545 134.466 62.2955C133 59.625 132.267 56.375 132.267 52.5455C132.267 48.7045 133 45.4489 134.466 42.7784C135.943 40.108 137.938 38.0795 140.449 36.6932C142.96 35.3068 145.784 34.6136 148.92 34.6136C152.045 34.6136 154.864 35.3068 157.375 36.6932C159.898 38.0795 161.898 40.108 163.375 42.7784C164.852 45.4489 165.591 48.7045 165.591 52.5455ZM156.966 52.5455C156.966 50.2727 156.642 48.3523 155.994 46.7841C155.358 45.2159 154.438 44.0284 153.233 43.2216C152.04 42.4148 150.602 42.0114 148.92 42.0114C147.25 42.0114 145.813 42.4148 144.608 43.2216C143.403 44.0284 142.477 45.2159 141.83 46.7841C141.193 48.3523 140.875 50.2727 140.875 52.5455C140.875 54.8182 141.193 56.7386 141.83 58.3068C142.477 59.875 143.403 61.0625 144.608 61.8693C145.813 62.6761 147.25 63.0795 148.92 63.0795C150.602 63.0795 152.04 62.6761 153.233 61.8693C154.438 61.0625 155.358 59.875 155.994 58.3068C156.642 56.7386 156.966 54.8182 156.966 52.5455Z" fill="white"></path>
<rect width="80" height="80" rx="5" transform="matrix(-1 0 0 1 189 110)" fill="#00C950"></rect>
<path d="M165.591 149.545C165.591 153.386 164.852 156.642 163.375 159.312C161.898 161.983 159.898 164.011 157.375 165.398C154.864 166.784 152.045 167.477 148.92 167.477C145.784 167.477 142.96 166.778 140.449 165.381C137.938 163.983 135.943 161.955 134.466 159.295C133 156.625 132.267 153.375 132.267 149.545C132.267 145.705 133 142.449 134.466 139.778C135.943 137.108 137.938 135.08 140.449 133.693C142.96 132.307 145.784 131.614 148.92 131.614C152.045 131.614 154.864 132.307 157.375 133.693C159.898 135.08 161.898 137.108 163.375 139.778C164.852 142.449 165.591 145.705 165.591 149.545ZM156.966 149.545C156.966 147.273 156.642 145.352 155.994 143.784C155.358 142.216 154.438 141.028 153.233 140.222C152.04 139.415 150.602 139.011 148.92 139.011C147.25 139.011 145.813 139.415 144.608 140.222C143.403 141.028 142.477 142.216 141.83 143.784C141.193 145.352 140.875 147.273 140.875 149.545C140.875 151.818 141.193 153.739 141.83 155.307C142.477 156.875 143.403 158.062 144.608 158.869C145.813 159.676 147.25 160.08 148.92 160.08C150.602 160.08 152.04 159.676 153.233 158.869C154.438 158.062 155.358 156.875 155.994 155.307C156.642 153.739 156.966 151.818 156.966 149.545Z" fill="white"></path>
<rect width="80" height="80" rx="5" transform="matrix(-1 0 0 1 94 110)" fill="#FDC800"></rect>
<path d="M40.5 138.943V132.091H70.0057V138.943H59.4205V167H51.1023V138.943H40.5Z" fill="white"></path>
<rect width="80" height="80" rx="5" transform="matrix(-1 0 0 1 284 110)" fill="#FDC800"></rect>
<path d="M251.966 167L240.989 152.511H239.08V167H230.642V132.091H239.08V145.642H240.426L251.233 132.091H261.784L248.335 148.574L262.483 167H251.966Z" fill="white"></path>
<rect width="80" height="80" rx="5" transform="matrix(-1 0 0 1 94 207)" fill="#00C950"></rect>
<path d="M50.2045 253.312V252.614C50.2045 250.682 50.3636 249.142 50.6818 247.994C51.0114 246.847 51.4886 245.926 52.1136 245.233C52.7386 244.528 53.5 243.886 54.3977 243.307C55.1136 242.852 55.75 242.392 56.3068 241.926C56.875 241.449 57.3239 240.937 57.6534 240.392C57.983 239.847 58.1477 239.227 58.1477 238.534C58.1477 237.864 57.9886 237.273 57.6705 236.761C57.3523 236.25 56.9148 235.858 56.358 235.585C55.8125 235.301 55.2045 235.159 54.5341 235.159C53.8636 235.159 53.233 235.312 52.642 235.619C52.0625 235.926 51.5852 236.364 51.2102 236.932C50.8466 237.489 50.6591 238.165 50.6477 238.96H42.8068C42.8409 236.574 43.392 234.619 44.4602 233.097C45.5398 231.574 46.9659 230.449 48.7386 229.722C50.5114 228.983 52.4659 228.614 54.6023 228.614C56.9432 228.614 59.0227 228.977 60.8409 229.705C62.6705 230.432 64.108 231.506 65.1534 232.926C66.1989 234.347 66.7216 236.085 66.7216 238.142C66.7216 239.494 66.4943 240.687 66.0398 241.722C65.5852 242.756 64.9489 243.67 64.1307 244.466C63.3239 245.25 62.375 245.966 61.2841 246.614C60.4318 247.114 59.7216 247.636 59.1534 248.182C58.5966 248.727 58.1761 249.352 57.892 250.057C57.608 250.75 57.4659 251.602 57.4659 252.614V253.312H50.2045ZM53.9716 264.494C52.7443 264.494 51.6932 264.062 50.8182 263.199C49.9545 262.335 49.5284 261.29 49.5398 260.062C49.5284 258.858 49.9545 257.83 50.8182 256.977C51.6932 256.114 52.7443 255.682 53.9716 255.682C55.142 255.682 56.1705 256.114 57.0568 256.977C57.9432 257.83 58.392 258.858 58.4034 260.062C58.392 260.881 58.1761 261.625 57.7557 262.295C57.3466 262.966 56.8068 263.5 56.1364 263.898C55.4773 264.295 54.7557 264.494 53.9716 264.494Z" fill="white"></path>
<rect width="80" height="80" rx="5" transform="matrix(-1 0 0 1 284 207)" fill="#00C950"></rect>
<path d="M238.205 253.312V252.614C238.205 250.682 238.364 249.142 238.682 247.994C239.011 246.847 239.489 245.926 240.114 245.233C240.739 244.528 241.5 243.886 242.398 243.307C243.114 242.852 243.75 242.392 244.307 241.926C244.875 241.449 245.324 240.937 245.653 240.392C245.983 239.847 246.148 239.227 246.148 238.534C246.148 237.864 245.989 237.273 245.67 236.761C245.352 236.25 244.915 235.858 244.358 235.585C243.813 235.301 243.205 235.159 242.534 235.159C241.864 235.159 241.233 235.312 240.642 235.619C240.063 235.926 239.585 236.364 239.21 236.932C238.847 237.489 238.659 238.165 238.648 238.96H230.807C230.841 236.574 231.392 234.619 232.46 233.097C233.54 231.574 234.966 230.449 236.739 229.722C238.511 228.983 240.466 228.614 242.602 228.614C244.943 228.614 247.023 228.977 248.841 229.705C250.67 230.432 252.108 231.506 253.153 232.926C254.199 234.347 254.722 236.085 254.722 238.142C254.722 239.494 254.494 240.687 254.04 241.722C253.585 242.756 252.949 243.67 252.131 244.466C251.324 245.25 250.375 245.966 249.284 246.614C248.432 247.114 247.722 247.636 247.153 248.182C246.597 248.727 246.176 249.352 245.892 250.057C245.608 250.75 245.466 251.602 245.466 252.614V253.312H238.205ZM241.972 264.494C240.744 264.494 239.693 264.062 238.818 263.199C237.955 262.335 237.528 261.29 237.54 260.062C237.528 258.858 237.955 257.83 238.818 256.977C239.693 256.114 240.744 255.682 241.972 255.682C243.142 255.682 244.17 256.114 245.057 256.977C245.943 257.83 246.392 258.858 246.403 260.062C246.392 260.881 246.176 261.625 245.756 262.295C245.347 262.966 244.807 263.5 244.136 263.898C243.477 264.295 242.756 264.494 241.972 264.494Z" fill="white"></path>
<rect width="80" height="80" rx="5" transform="matrix(-1 0 0 1 189 207)" fill="#00C950"></rect>
<path d="M145.205 253.312V252.614C145.205 250.682 145.364 249.142 145.682 247.994C146.011 246.847 146.489 245.926 147.114 245.233C147.739 244.528 148.5 243.886 149.398 243.307C150.114 242.852 150.75 242.392 151.307 241.926C151.875 241.449 152.324 240.937 152.653 240.392C152.983 239.847 153.148 239.227 153.148 238.534C153.148 237.864 152.989 237.273 152.67 236.761C152.352 236.25 151.915 235.858 151.358 235.585C150.813 235.301 150.205 235.159 149.534 235.159C148.864 235.159 148.233 235.312 147.642 235.619C147.063 235.926 146.585 236.364 146.21 236.932C145.847 237.489 145.659 238.165 145.648 238.96H137.807C137.841 236.574 138.392 234.619 139.46 233.097C140.54 231.574 141.966 230.449 143.739 229.722C145.511 228.983 147.466 228.614 149.602 228.614C151.943 228.614 154.023 228.977 155.841 229.705C157.67 230.432 159.108 231.506 160.153 232.926C161.199 234.347 161.722 236.085 161.722 238.142C161.722 239.494 161.494 240.687 161.04 241.722C160.585 242.756 159.949 243.67 159.131 244.466C158.324 245.25 157.375 245.966 156.284 246.614C155.432 247.114 154.722 247.636 154.153 248.182C153.597 248.727 153.176 249.352 152.892 250.057C152.608 250.75 152.466 251.602 152.466 252.614V253.312H145.205ZM148.972 264.494C147.744 264.494 146.693 264.062 145.818 263.199C144.955 262.335 144.528 261.29 144.54 260.062C144.528 258.858 144.955 257.83 145.818 256.977C146.693 256.114 147.744 255.682 148.972 255.682C150.142 255.682 151.17 256.114 152.057 256.977C152.943 257.83 153.392 258.858 153.403 260.062C153.392 260.881 153.176 261.625 152.756 262.295C152.347 262.966 151.807 263.5 151.136 263.898C150.477 264.295 149.756 264.494 148.972 264.494Z" fill="white"></path>
</svg></svg></g></g><defs><clipPath id="SvgjsClipPath1142"><rect width="1000" height="1000" x="0" y="0" rx="150" ry="150"></rect></clipPath></defs></svg></g></svg>